<?xml version="1.0" encoding="UTF-8"?>
<svg width="512" height="512" viewBox="0 0 512 512" fill="none" xmlns="http://www.w3.org/2000/svg">
  <rect width="512" height="512" rx="100" fill="url(#paint0_linear)" />
  <path d="M130 180C130 171.716 136.716 165 145 165H366C374.284 165 381 171.716 381 180V215C381 223.284 374.284 230 366 230H145C136.716 230 130 223.284 130 215V180Z" fill="white" />
  <path d="M130 275C130 266.716 136.716 260 145 260H290C298.284 260 305 266.716 305 275V310C305 318.284 298.284 325 290 325H145C136.716 325 130 318.284 130 310V275Z" fill="white" />
  <path d="M130 370C130 361.716 136.716 355 145 355H215C223.284 355 230 361.716 230 370V405C230 413.284 223.284 420 215 420H145C136.716 420 130 413.284 130 405V370Z" fill="white" />
  <path d="M382 259.5C382 259.5 357.5 289.5 345 289.5C332.5 289.5 325 282 325 269.5C325 257 339 246 348.5 246C358 246 382 259.5 382 259.5Z" fill="white" />
  <path d="M382 359.5C382 359.5 357.5 389.5 345 389.5C332.5 389.5 325 382 325 369.5C325 357 339 346 348.5 346C358 346 382 359.5 382 359.5Z" fill="white" />
  <defs>
    <linearGradient id="paint0_linear" x1="0" y1="0" x2="512" y2="512" gradientUnits="userSpaceOnUse">
      <stop stop-color="#0CA5E9" />
      <stop offset="1" stop-color="#8B5CF6" />
    </linearGradient>
  </defs>
</svg>
